<?xml version="1.0" standalone="no"?><!DOCTYPE svg PUBLIC "-//W3C//DTD SVG 1.1//EN" "http://www.w3.org/Graphics/SVG/1.1/DTD/svg11.dtd"><svg t="1526607600173" class="icon" style="" viewBox="0 0 1024 1024" version="1.1" xmlns="http://www.w3.org/2000/svg" p-id="2315" xmlns:xlink="http://www.w3.org/1999/xlink" width="32" height="32"><defs><style type="text/css"></style></defs><path d="M864.739786 855.5638l-154.089447-155.719574c57.540508-61.012585 93.028766-144.524604 93.028766-236.654908 0-186.854689-145.914254-338.330612-325.908698-338.330612S151.86171 276.334629 151.86171 463.189318 297.775964 801.519929 477.770408 801.519929c73.131601 0 140.638087-25.00551 195.016579-67.230194 0.208754 0.227174 0.416486 0.454348 0.635473 0.675382L828.370461 891.551432c5.003967 5.056156 11.593036 7.588839 18.185174 7.588839 6.502088 0 13.006222-2.463098 17.992793-7.397481C874.592179 881.804441 874.678136 865.605503 864.739786 855.5638zM477.770408 770.820744c-39.7227 0-78.251202-8.073886-114.51615-23.997554-35.121915-15.421224-66.688865-37.524638-93.825922-65.696258-27.214828-28.251438-48.587602-61.166081-63.524802-97.828073-15.488763-38.015825-23.342638-78.426187-23.342638-120.109542 0-41.683355 7.853875-82.09474 23.342638-120.109542 14.937201-36.661991 36.309974-69.575612 63.524802-97.828073 27.137057-28.17162 58.70503-50.275034 93.825922-65.696258 36.264948-15.923668 74.794473-23.997554 114.51615-23.997554 39.7227 0 78.251202 8.073886 114.51615 23.997554 35.121915 15.421224 66.688865 37.524638 93.825922 65.696258 27.214828 28.251438 48.587602 61.166081 63.524802 97.828073 15.488763 38.015825 23.342638 78.426187 23.342638 120.109542 0 41.683355-7.853875 82.09474-23.342638 120.109542-14.937201 36.661991-36.309974 69.575612-63.524802 97.828073-27.137057 28.17162-58.70503 50.275034-93.825922 65.696258C556.021609 762.746858 517.493108 770.820744 477.770408 770.820744z" p-id="2316" fill="#aaaaaa"></path></svg>